# xmcd
#
# Track frame offsets:
# 150
# 15309
# 37809
# 53348
# 66740
# 87232
# 99094
# 110499
# 133201
# 151875
# 168176
# 183917
# 202287
#
# Disc length: 2876 seconds
#
#
# Revision: 0
# Processed by: cddbd v1.5.1PL2 Copyright (c) Steve Scherf et al.
# Submitted via: FreeRIP 2.944 
#
DISCID=a10b3a0d
DTITLE=Eric Clapton - Me And Mr. Johnson
DYEAR=1900
DGENRE=Blues
TTITLE0=When You Got A Good Friend
TTITLE1=Little Queen Of Spades
TTITLE2=They're Red Hot
TTITLE3=Me And The Devil Blues
TTITLE4=Traveling Riverside Blues
TTITLE5=Last Fair Deal Gone Down
TTITLE6=Stop Breakin' Down Blues
TTITLE7=Milkcow's Calf Blues
TTITLE8=Kind Hearted Woman Blues
TTITLE9=Come On In My Kitchen
TTITLE10=If I Had Possession Over Judgement Day
TTITLE11=Love In Vain
TTITLE12=32-20 Blues
EXTD=
EXTT0=
EXTT1=
EXTT2=
EXTT3=
EXTT4=
EXTT5=
EXTT6=
EXTT7=
EXTT8=
EXTT9=
EXTT10=
EXTT11=
EXTT12=
PLAYORDER=
